<svg xmlns="http://www.w3.org/2000/svg" width="26.915" height="26.915" viewBox="0 0 26.915 26.915"><path d="M24.992,2.25H1.916A1.931,1.931,0,0,0,0,4.19V27.224a1.931,1.931,0,0,0,1.916,1.94H24.992a1.936,1.936,0,0,0,1.922-1.94V4.19A1.936,1.936,0,0,0,24.992,2.25ZM8.134,25.32H4.145V12.475h4V25.32ZM6.14,10.721A2.313,2.313,0,1,1,8.453,8.408,2.314,2.314,0,0,1,6.14,10.721Zm16.948,14.6H19.1V19.072c0-1.49-.03-3.406-2.073-3.406-2.079,0-2.4,1.622-2.4,3.3V25.32H10.64V12.475h3.827v1.754h.054A4.2,4.2,0,0,1,18.3,12.157c4.037,0,4.788,2.661,4.788,6.122Z" transform="translate(0 -2.25)" fill="#262261"/></svg>