<svg xmlns="http://www.w3.org/2000/svg" width="31.236" height="25.418" viewBox="0 0 31.236 25.418"><path d="M32.65,7.512a12.956,12.956,0,0,1-3.68,1.013,6.431,6.431,0,0,0,2.82-3.548,12.734,12.734,0,0,1-4.071,1.556,6.407,6.407,0,0,0-11.087,4.382,6.274,6.274,0,0,0,.165,1.463A18.161,18.161,0,0,1,3.584,5.672a6.421,6.421,0,0,0,1.992,8.565,6.259,6.259,0,0,1-2.912-.8v.079A6.414,6.414,0,0,0,7.807,19.8a6.451,6.451,0,0,1-1.688.225,6.046,6.046,0,0,1-1.2-.119,6.419,6.419,0,0,0,5.99,4.455,12.849,12.849,0,0,1-7.963,2.747,12.99,12.99,0,0,1-1.529-.093,17.913,17.913,0,0,0,9.81,2.9c11.8,0,18.249-9.777,18.249-18.256,0-.278-.007-.556-.02-.827A13.046,13.046,0,0,0,32.65,7.512Z" transform="translate(-1.413 -4.5)" fill="#262261"/></svg>