<svg xmlns="http://www.w3.org/2000/svg" width="22.152" height="22.152" viewBox="0 0 22.152 22.152">
  <path id="Icon_awesome-phone-alt" data-name="Icon awesome-phone-alt" d="M21.52,15.654l-4.846-2.077a1.038,1.038,0,0,0-1.211.3L13.317,16.5A16.037,16.037,0,0,1,5.651,8.831L8.273,6.685a1.036,1.036,0,0,0,.3-1.211L6.494.628A1.045,1.045,0,0,0,5.3.027L.8,1.065A1.038,1.038,0,0,0,0,2.077,20.074,20.074,0,0,0,20.076,22.153a1.038,1.038,0,0,0,1.012-.8l1.038-4.5a1.051,1.051,0,0,0-.606-1.194Z" transform="translate(0 0)"/>
</svg>
